<svg height="480pt" viewBox="0 0 480 480" width="480pt" xmlns="http://www.w3.org/2000/svg"><path d="m96 120h48v24c0 4.417969 3.582031 8 8 8h64v248c-.039062 35.328125-28.671875 63.960938-64 64-4.417969 0-8 3.582031-8 8s3.582031 8 8 8h176c4.417969 0 8-3.582031 8-8s-3.582031-8-8-8c-35.328125-.039062-63.960938-28.671875-64-64v-248h64c4.417969 0 8-3.582031 8-8v-24h48c17.671875 0 32-14.328125 32-32s-14.328125-32-32-32h-288c-17.671875 0-32 14.328125-32 32s14.328125 32 32 32zm184.046875 344h-80.09375c20.171875-15.089844 32.046875-38.808594 32.046875-64v-248h16v248c0 25.191406 11.875 48.910156 32.046875 64zm39.953125-328h-160v-16h160zm-224-64h288c8.835938 0 16 7.164062 16 16s-7.164062 16-16 16h-288c-8.835938 0-16-7.164062-16-16s7.164062-16 16-16zm0 0"/><path d="m8 480c4.417969 0 8-3.582031 8-8v-56h96v56c0 4.417969 3.582031 8 8 8s8-3.582031 8-8v-257.472656c11.011719-3.878906 17.621094-15.132813 15.644531-26.640625-1.980469-11.507813-11.96875-19.910157-23.644531-19.886719h-72v-144c0-13.253906-10.746094-24-24-24s-24 10.746094-24 24v448c0 4.417969 3.582031 8 8 8zm8-80v-184h96v184zm0-376c0-4.417969 3.582031-8 8-8s8 3.582031 8 8v152c0 4.417969 3.582031 8 8 8h80c4.417969 0 8 3.582031 8 8s-3.582031 8-8 8h-104zm0 0"/><path d="m456 0c-13.253906 0-24 10.746094-24 24v144h-72c-11.675781-.023438-21.664062 8.378906-23.644531 19.886719-1.976563 11.507812 4.632812 22.761719 15.644531 26.640625v257.472656c0 4.417969 3.582031 8 8 8s8-3.582031 8-8v-56h96v56c0 4.417969 3.582031 8 8 8s8-3.582031 8-8v-448c0-13.253906-10.746094-24-24-24zm-96 184h80c4.417969 0 8-3.582031 8-8v-152c0-4.417969 3.582031-8 8-8s8 3.582031 8 8v176h-104c-4.417969 0-8-3.582031-8-8s3.582031-8 8-8zm8 216v-184h96v184zm0 0"/></svg>