<?xml version='1.0' encoding='iso-8859-1'?>
<!DOCTYPE svg PUBLIC '-//W3C//DTD SVG 1.1//EN' 'http://www.w3.org/Graphics/SVG/1.1/DTD/svg11.dtd'>
<svg version="1.1" xmlns="http://www.w3.org/2000/svg" viewBox="0 0 261.141 261.141" xmlns:xlink="http://www.w3.org/1999/xlink" enable-background="new 0 0 261.141 261.141">
  <g>
    <path d="m130.459,156.07c-3.313,0-6,2.687-6,6v29.313c0,3.314 2.687,6 6,6 3.313,0 6-2.686 6-6v-29.313c0-3.313-2.687-6-6-6z"/>
    <path d="m150.694,156.07c-3.314,0-6,2.687-6,6v29.313c0,3.314 2.686,6 6,6 3.313,0 6-2.686 6-6v-29.313c0-3.313-2.686-6-6-6z"/>
    <path d="m151.945,110.077c-4.083-5.277-10.471-8.515-17.257-8.515-10.06,0-18.706,6.971-21.121,16.439-5.783,3.252-9.464,9.381-9.464,16.236v84.977c0,3.314 2.687,6 6,6h60.946c3.313,0 6-2.686 6-6v-8.613h12.987c3.314,0 6-2.686 6-6v-55.754c0-3.314-2.686-6-6-6h-12.986v-8.609c0-13.639-11.372-24.71-25.105-24.161zm-31.199,17.825c2.341-0.738 3.996-2.828 4.179-5.275 0.38-5.083 4.668-9.064 9.764-9.064 3.782,0 7.161,2.128 8.817,5.553 1.212,2.504 3.985,3.85 6.701,3.246 0.905-0.201 1.801-0.303 2.661-0.303 4.537,0 8.502,2.492 10.599,6.18h-43.579c0.275-0.131 0.561-0.243 0.858-0.337zm44.304,85.313h-48.946v-72.977h48.946v8.609 55.754 8.614zm18.987-58.367v43.754h-6.987v-43.754h6.987z"/>
    <path d="m235.822,65.637h-52.668v-17.819h52.668c4.143,0 7.5-3.358 7.5-7.5 0-4.142-3.357-7.5-7.5-7.5h-203.004v-25.318c1.42109e-14-4.142-3.357-7.5-7.5-7.5-4.142,0-7.5,3.358-7.5,7.5v65.637c0,4.142 3.358,7.5 7.5,7.5 4.143,0 7.5-3.358 7.5-7.5v-25.319h75.169v17.818h-52.669c-4.142,0-7.5,3.358-7.5,7.5v180.504c0,4.142 3.358,7.5 7.5,7.5h180.504c4.143,0 7.5-3.358 7.5-7.5v-180.503c0-4.142-3.357-7.5-7.5-7.5zm-112.835-17.819h45.167v17.818h-45.167v-17.818zm105.335,198.323h-165.504v-165.504h165.504v165.504z"/>
  </g>
</svg>
